<svg width="60" height="60" viewBox="0 0 60 60" fill="none" xmlns="http://www.w3.org/2000/svg">
<rect width="60" height="60" fill="white"/>
<path d="M25.4232 18.7706V10.9455H25.5831C26.13 10.9455 26.574 10.5019 26.574 9.95458V7.97275C26.574 6.33348 25.2402 5 23.6013 5H19.0431C17.4038 5 16.0703 6.33348 16.0703 7.97275V9.95458C16.0703 10.5019 16.5139 10.9455 17.0612 10.9455H17.2207V18.7977C16.8263 19.0002 16.6033 19.4507 16.7078 19.9024C16.8135 20.3607 17.2215 20.6708 17.6724 20.6708C17.746 20.6708 17.8211 20.6623 17.8962 20.6452C18.0525 20.6089 18.2089 20.5791 18.3606 20.5558C18.8449 20.4823 19.2025 20.0658 19.2025 19.5761V15.7565H23.4414V19.5761C23.4414 20.0658 23.7991 20.4823 24.2829 20.5558C27.3497 21.023 29.6621 23.7128 29.6621 26.8133V52.6704C29.6621 53.2673 29.1763 53.7531 28.5795 53.7531H14.0645C13.4676 53.7531 12.9818 53.2673 12.9818 52.6704V26.8133C12.9818 26.3906 13.0248 25.9668 13.1092 25.5538C13.2183 25.0173 12.8727 24.494 12.3366 24.3844C11.7997 24.2753 11.2768 24.6209 11.1672 25.157C11.0565 25.7005 11 26.2579 11 26.8133V52.6704C11 54.3604 12.3745 55.7349 14.0645 55.7349H28.5795C30.2694 55.7349 31.644 54.3604 31.644 52.6704V26.8133C31.644 23.0312 29.0238 19.7139 25.4232 18.7706V18.7706ZM18.0521 7.97275C18.0521 7.4262 18.4965 6.98183 19.0431 6.98183H23.6013C24.1474 6.98183 24.5922 7.4262 24.5922 7.97275V8.96366H18.0521V7.97275ZM19.2025 13.7746V10.9455H23.4414V13.7746H19.2025Z" fill="black" stroke="black" stroke-width="0.5"/>
<path d="M14.9637 46.7249C14.9637 47.2719 15.4076 47.7158 15.9546 47.7158H26.6894C27.2367 47.7158 27.6803 47.2719 27.6803 46.7249V30.777C27.6803 30.2296 27.2367 29.7861 26.6894 29.7861H15.9546C15.4076 29.7861 14.9637 30.2296 14.9637 30.777V46.7249ZM16.9455 31.7679H25.6985V45.734H16.9455V31.7679Z" fill="black" stroke="black" stroke-width="0.5"/>
<path d="M21.3222 35.778C19.6829 35.778 18.3494 37.1119 18.3494 38.7507C18.3494 40.39 19.6829 41.7235 21.3222 41.7235C22.961 41.7235 24.2949 40.39 24.2949 38.7507C24.2949 37.1119 22.961 35.778 21.3222 35.778ZM21.3222 39.7416C20.7756 39.7416 20.3313 39.2973 20.3313 38.7507C20.3313 38.2046 20.7756 37.7598 21.3222 37.7598C21.8683 37.7598 22.3131 38.2046 22.3131 38.7507C22.3131 39.2973 21.8683 39.7416 21.3222 39.7416Z" fill="black" stroke="black" stroke-width="0.5"/>
<path d="M16.6889 49.7894C16.1415 49.7894 15.698 50.233 15.698 50.7803C15.698 51.3273 16.1423 51.7712 16.6893 51.7712C17.2366 51.7712 17.6802 51.3273 17.6802 50.7803C17.6802 50.233 17.2366 49.7894 16.6893 49.7894H16.6889Z" fill="black" stroke="black" stroke-width="0.5"/>
<path d="M26.598 49.7894H20.6525C20.1056 49.7894 19.6616 50.233 19.6616 50.7803C19.6616 51.3273 20.1056 51.7712 20.6525 51.7712H26.598C27.145 51.7712 27.5889 51.3273 27.5889 50.7803C27.5889 50.233 27.145 49.7894 26.598 49.7894Z" fill="black" stroke="black" stroke-width="0.5"/>
<path d="M14.0865 22.6898C14.3401 22.6898 14.5936 22.593 14.7872 22.3995L14.7879 22.3991C15.1746 22.012 15.1742 21.385 14.7875 20.9979C14.4005 20.6108 13.773 20.6112 13.3859 20.9983C12.9989 21.385 12.9989 22.0124 13.3859 22.3995C13.5795 22.593 13.833 22.6898 14.0865 22.6898Z" fill="black" stroke="black" stroke-width="0.5"/>
<path fill-rule="evenodd" clip-rule="evenodd" d="M46.8358 40.9891C46.1369 40.9307 45.523 41.45 45.4647 42.1489L45.3773 43.1954L36.838 43.1954C36.6436 43.1954 36.4607 43.2448 36.3012 43.3317L36.1929 42.2324C36.1182 41.4739 35.4427 40.9196 34.6842 40.9943C33.9257 41.069 33.3715 41.7445 33.4462 42.503L34.6043 54.2577C34.5957 54.3137 34.5912 54.371 34.5912 54.4294C34.5912 55.0498 35.0942 55.5528 35.7146 55.5528L45.8252 55.5528C46.3237 55.5528 46.7464 55.228 46.8933 54.7786C46.9459 54.656 46.98 54.523 46.9917 54.3828L47.9955 42.3602C48.0539 41.6613 47.5346 41.0474 46.8358 40.9891ZM44.5331 53.306L45.1897 45.4422L36.838 45.4422C36.7218 45.4422 36.6096 45.4245 36.5042 45.3917L37.2839 53.306L44.5331 53.306Z" fill="black"/>
</svg>
