<svg width="77" height="53" viewBox="0 0 77 53" fill="none" xmlns="http://www.w3.org/2000/svg">
<path d="M32.647 50.7864C36.1689 51.9514 39.9795 50.0738 41.1583 46.5925C42.3369 43.1113 40.4373 39.345 36.9153 38.1799C33.3933 37.0149 2.36785 29.8903 1.18923 33.3714C0.0106226 36.8524 29.125 49.6214 32.647 50.7864Z" fill="#91CC04"/>
<path d="M36.9153 38.1799C34.6804 37.4406 21.3702 34.3014 11.6398 32.9956C12.6299 34.166 22.5535 44.9323 25.4356 47.7774C28.9518 49.3409 31.7087 50.4757 32.6472 50.7861C36.1691 51.9511 39.9797 50.0735 41.1584 46.5922C42.3369 43.1115 40.4373 39.345 36.9153 38.1799Z" fill="#85BB04"/>
<path d="M44.349 50.7864C40.8271 51.9514 37.0165 50.0738 35.8378 46.5926C34.6592 43.1115 36.5588 39.345 40.0808 38.1799C43.6028 37.0149 74.6282 29.8901 75.807 33.3712C76.9856 36.8524 47.8708 49.6214 44.349 50.7864Z" fill="#9CDD05"/>
<path d="M65.3564 32.9956C55.6259 34.3016 42.3157 37.4406 40.0809 38.1799C36.559 39.3448 34.6594 43.1113 35.8379 46.5924C37.0165 50.0735 40.8271 51.9511 44.3491 50.7862C45.2877 50.4757 48.0444 49.3409 51.5608 47.7776C54.4427 44.9323 64.3663 34.1662 65.3564 32.9956Z" fill="#91CC04"/>
<path d="M29.8537 40.6356C31.4579 43.9464 35.4736 45.3449 38.8233 43.7594C42.1729 42.1738 43.5878 38.2045 41.9837 34.8937C40.3795 31.5828 23.9682 4.60036 20.6187 6.18585C17.2692 7.77135 28.2495 37.3247 29.8537 40.6356Z" fill="#85BB04"/>
<path d="M47.9878 40.6356C46.3836 43.9464 42.3678 45.3449 39.0182 43.7594C35.6685 42.1738 34.2537 38.2045 35.8577 34.8937C37.462 31.5828 53.8733 4.60036 57.2228 6.18585C60.5724 7.7715 49.5917 37.3247 47.9878 40.6356Z" fill="#85BB04"/>
<path d="M41.9836 34.8937C41.0723 33.0127 35.3807 23.4899 30.0208 15.9071C29.9351 16.4312 27.9414 31.4903 27.6788 35.1983C28.6902 37.8991 29.4999 39.9054 29.8536 40.6356C31.4578 43.9464 35.4735 45.3449 38.8232 43.7594C42.173 42.1738 43.5879 38.2045 41.9836 34.8937Z" fill="#79AB03"/>
<path d="M50.1797 35.1517C49.9636 31.3678 48.1938 16.2138 48.0908 15.5257C42.6536 23.167 36.7843 32.9807 35.8576 34.8935C34.2534 38.2044 35.6686 42.1736 39.0181 43.7593C42.3677 45.3449 46.3834 43.9461 47.9877 40.6354C48.3433 39.9012 49.1604 37.876 50.1797 35.1517Z" fill="#79AB03"/>
<path d="M32.1963 37.0586C32.1661 40.7294 35.1521 43.7294 38.8659 43.7593C42.5796 43.7892 45.6148 40.8377 45.645 37.167C45.6752 33.4962 42.9232 2.13085 39.2096 2.10097C35.4961 2.07109 32.2266 33.3877 32.1963 37.0586Z" fill="#91CC04"/>
<path d="M31.6818 47.3838C34.5197 49.7518 38.7624 49.3976 41.1581 46.5926C43.5538 43.7875 43.1954 39.594 40.3576 37.226C37.5197 34.858 11.348 16.9136 8.95226 19.7186C6.55654 22.5237 28.844 45.0158 31.6818 47.3838Z" fill="#9CDD05"/>
<path d="M45.3142 47.3838C42.4763 49.7518 38.2337 49.3976 35.8379 46.5926C33.4422 43.7875 33.8006 39.594 36.6385 37.226C39.4763 34.858 65.6481 16.9136 68.0438 19.7186C70.4394 22.5237 48.1521 45.0158 45.3142 47.3838Z" fill="#C2FB3B"/>
<path d="M50.367 35.9098C49.8861 35.4982 49.8766 34.7603 50.3105 34.3003C50.5679 34.0276 50.8275 33.7513 51.0892 33.4717C51.5213 33.01 52.2504 32.9816 52.7173 33.409C53.1845 33.836 53.2129 34.5565 52.7808 35.0182C52.5169 35.3001 52.255 35.5788 51.9956 35.854C51.7685 36.0942 50.9791 36.4337 50.367 35.9098Z" fill="#9CDD05"/>
<path d="M41.4613 44.6377C41.0344 44.1712 41.1123 43.4388 41.5985 43.0331C42.221 42.5136 44.7693 40.0535 47.9347 36.7851C48.3746 36.3308 49.1039 36.3151 49.5636 36.75C50.0232 37.1848 50.0392 37.9058 49.5991 38.36C46.5502 41.5078 43.8437 44.14 43.0848 44.7734C42.8685 44.9537 42.108 45.3442 41.4613 44.6377Z" fill="#9CDD05"/>
<path d="M76.8993 33.0098C76.4018 31.5407 74.3773 31.0658 69.9117 31.3693C67.396 31.5406 64.9579 31.819 61.3005 32.4396C63.6553 29.7373 65.5166 27.4237 66.8462 25.5442C69.3178 22.0504 69.9198 20.1499 68.924 18.9842C68.5268 18.519 67.9371 18.2833 67.1716 18.2833C64.9917 18.2833 60.4406 20.5147 55.4638 23.4138C56.7395 19.3952 57.7083 15.9135 58.2937 13.2334C59.3907 8.21034 59.2247 5.87104 57.7206 5.159C56.2569 4.46615 54.3968 5.6983 51.3007 9.41157C50.8962 9.89676 50.966 10.6146 51.4573 11.0146C51.9477 11.4145 52.6743 11.3457 53.0791 10.8599C55.1565 8.3685 56.2084 7.59909 56.6563 7.36199C56.8393 8.28466 56.8563 11.923 52.4628 25.2084C50.3489 26.5024 48.2283 27.8582 46.2411 29.1635C46.0589 27.217 45.7817 24.4903 45.4117 21.4757C47.4628 18.3741 49.3399 15.6922 50.9927 13.5024C51.3734 12.9983 51.2683 12.2847 50.7584 11.9087C50.2485 11.5327 49.5266 11.6364 49.1461 12.1403C47.8718 13.8281 46.4694 15.7999 44.961 18.0224C44.7046 16.1771 44.4171 14.2971 44.0982 12.4816C42.4221 2.94056 40.9355 0.976303 39.2191 0.962479C39.2129 0.962479 39.2071 0.962479 39.2011 0.962479C37.4601 0.962479 35.9164 3.01161 34.0509 12.9233C33.7129 14.7197 33.404 16.572 33.1259 18.3855C30.7423 14.8588 28.5912 11.9101 26.8365 9.76922C23.5692 5.78304 21.6233 4.44801 20.121 5.159C18.5789 5.88902 18.4312 8.21212 19.5945 13.4452C20.3311 16.7592 21.5082 20.7075 22.5778 24.0406C19.0585 21.9508 16.1639 20.4103 13.9741 19.4625C10.7446 18.0645 8.97962 17.9218 8.07186 18.9845C7.07628 20.1502 7.67814 22.0508 10.1498 25.5445C11.482 27.4277 13.3474 29.7464 15.7087 32.4552C12.1826 31.8768 9.23558 31.5085 6.92664 31.3592C2.56696 31.0777 0.588726 31.5558 0.0964978 33.0103C-0.450774 34.627 1.42445 36.2236 3.3311 37.5722C5.16256 38.8675 7.82988 40.4376 11.2591 42.2386C11.4313 42.3291 12.3069 42.6495 12.8171 41.7672C13.133 41.2212 12.9023 40.5223 12.3404 40.2272C4.72326 36.2265 2.88188 34.4082 2.43793 33.7839C3.2756 33.5145 6.49276 33.0926 18.1359 35.1841C23.5666 41.179 29.5237 47.0736 30.9383 48.2539C32.0413 49.1743 33.3611 49.7644 34.7524 49.9881C34.1673 49.9856 33.5801 49.8944 33.0123 49.7065C31.5707 49.2296 25.8262 46.7931 19.7455 43.9085C19.172 43.6368 18.4837 43.8752 18.2083 44.4425C17.9331 45.0094 18.1748 45.6898 18.7485 45.9618C25.1514 48.999 30.8142 51.3807 32.2811 51.8662C33.0951 52.1354 36.5776 52.5943 38.5005 51.3437C41.1823 52.6322 43.8884 52.1394 44.7144 51.8662C46.5398 51.2624 54.8315 47.7151 62.359 43.9641C66.6923 41.8047 70.1102 39.9152 72.5175 38.3481C76.1197 36.0033 77.389 34.4566 76.8993 33.0098ZM67.0364 20.5658C66.8242 21.4422 65.4459 24.5023 57.1148 33.6967C51.699 39.6735 45.9154 45.3918 44.5712 46.5136C43.567 47.3516 42.2914 47.813 40.9797 47.813C39.3327 47.813 37.7796 47.1003 36.7183 45.8579C35.7582 44.7337 35.2984 43.3072 35.4235 41.8411C35.5487 40.3751 36.2442 39.0452 37.3815 38.096C38.6324 37.0524 44.9684 32.6015 51.5671 28.4615C62.4292 21.6465 65.9549 20.6413 67.0364 20.5658ZM39.1988 3.40375C39.6339 3.99865 40.7044 6.15823 41.9846 13.7834C43.0814 20.3159 43.78 27.4618 44.0596 30.6109C41.8795 32.0723 39.9556 33.4054 38.5112 34.4305C37.1894 33.4897 35.5848 32.3805 33.8207 31.1939C34.1136 28.3451 34.924 21.0215 36.1465 14.2599C37.598 6.23077 38.7437 4.00489 39.1988 3.40375ZM21.1895 7.35917C22.0308 7.79635 24.9099 10.0631 32.6326 21.7825C32.1927 24.9773 31.8632 27.8331 31.6561 29.7526C29.7075 28.4683 27.6417 27.1415 25.6012 25.8769C24.0085 21.1057 22.7716 16.9095 22.0239 13.7364C21.0292 9.51681 21.0823 7.92121 21.1895 7.35917ZM19.8811 33.6967C11.5262 24.476 10.1639 21.425 9.95761 20.5582C10.7798 20.6108 13.5999 21.3012 22.2296 26.4939C27.2897 29.539 32.8995 33.2728 36.5543 35.8468C36.2471 36.076 36.0214 36.2498 35.8949 36.3558C29.4345 41.7766 34.9698 47.5423 35.0563 47.729C34.0965 47.5628 33.1871 47.1497 32.4246 46.5136C31.0807 45.3919 25.2971 39.6737 19.8811 33.6967ZM60.4284 42.3731C53.1627 45.9511 45.6519 49.1547 43.9833 49.7066C43.4001 49.8996 42.8068 49.9902 42.223 49.9907C43.6284 49.7676 44.958 49.1712 46.0574 48.254C47.4719 47.0736 53.4291 41.179 58.8598 35.1841C70.5088 33.0912 73.7237 33.5148 74.5589 33.7843C74.0445 34.5137 71.64 36.8521 60.4284 42.3731Z" fill="black"/>
<path d="M16.6642 42.4207C16.2407 42.2123 15.8181 42.0028 15.3976 41.7923C14.8297 41.5087 14.1366 41.7332 13.8493 42.2943C13.5621 42.8555 13.7895 43.5406 14.3572 43.8247C14.7822 44.0371 15.2093 44.2489 15.6372 44.4596C15.802 44.5406 16.7619 44.8129 17.182 43.9478C17.4572 43.3807 17.2337 42.7009 16.6642 42.4207Z" fill="black"/>
</svg>
