<svg width="236" height="70" viewBox="0 0 236 70" fill="none" xmlns="http://www.w3.org/2000/svg">
<path d="M69.4777 27.945L69.4401 10.47L60.7779 24.9321H58.5935L49.9313 10.6959V27.945H45.2612V1.58179H49.291L59.761 19.0568L70.0427 1.58179H74.0725L74.1101 27.945H69.4777Z" fill="white"/>
<path d="M99.6854 18.0023C99.6854 18.3287 99.6603 18.7932 99.6101 19.3958H83.8298C84.106 20.8772 84.8216 22.0572 85.9765 22.936C87.1566 23.7897 88.6128 24.2165 90.3453 24.2165C92.5548 24.2165 94.3751 23.4884 95.8062 22.0321L98.3296 24.9321C97.4257 26.0117 96.2833 26.8277 94.9023 27.3801C93.5214 27.9325 91.9647 28.2086 90.2323 28.2086C88.0228 28.2086 86.0769 27.7693 84.3947 26.8905C82.7125 26.0117 81.4069 24.794 80.4779 23.2373C79.574 21.6555 79.1221 19.8728 79.1221 17.8893C79.1221 15.9309 79.5615 14.1734 80.4402 12.6167C81.3441 11.0349 82.587 9.80461 84.1687 8.92583C85.7505 8.04706 87.5332 7.60767 89.5167 7.60767C91.4751 7.60767 93.2201 8.04706 94.7517 8.92583C96.3084 9.7795 97.5136 10.9972 98.3672 12.579C99.246 14.1357 99.6854 15.9435 99.6854 18.0023ZM89.5167 11.3738C88.0102 11.3738 86.7298 11.8258 85.6752 12.7297C84.6458 13.6084 84.0181 14.7885 83.7921 16.2699H95.2036C95.0028 14.8136 94.3876 13.6336 93.3582 12.7297C92.3288 11.8258 91.0483 11.3738 89.5167 11.3738Z" fill="white"/>
<path d="M119.728 24.1788V27.945H102.366V24.9697L113.401 11.5998H102.592V7.83364H119.427V10.8089L108.355 24.1788H119.728Z" fill="white"/>
<path d="M133.001 28.2086C130.917 28.2086 129.047 27.7693 127.389 26.8905C125.732 26.0117 124.439 24.794 123.51 23.2373C122.581 21.6555 122.117 19.8728 122.117 17.8893C122.117 15.9058 122.581 14.1357 123.51 12.579C124.439 11.0223 125.72 9.80461 127.352 8.92583C129.009 8.04706 130.892 7.60767 133.001 7.60767C134.985 7.60767 136.717 8.0094 138.198 8.81285C139.705 9.6163 140.835 10.7713 141.588 12.2777L137.972 14.3868C137.395 13.4578 136.667 12.7673 135.788 12.3154C134.934 11.8383 133.993 11.5998 132.963 11.5998C131.206 11.5998 129.75 12.1773 128.595 13.3323C127.44 14.4621 126.862 15.9811 126.862 17.8893C126.862 19.7975 127.427 21.3291 128.557 22.4841C129.712 23.6139 131.181 24.1788 132.963 24.1788C133.993 24.1788 134.934 23.9529 135.788 23.5009C136.667 23.0239 137.395 22.3209 137.972 21.3919L141.588 23.5009C140.81 25.0074 139.667 26.1749 138.161 27.0035C136.679 27.8069 134.959 28.2086 133.001 28.2086Z" fill="white"/>
<path d="M153.34 7.60767C156.303 7.60767 158.563 8.32325 160.12 9.75439C161.701 11.1604 162.492 13.2946 162.492 16.1569V27.945H158.048V25.497C157.471 26.3758 156.642 27.0537 155.562 27.5307C154.508 27.9827 153.227 28.2086 151.721 28.2086C150.214 28.2086 148.896 27.9576 147.766 27.4554C146.637 26.9281 145.758 26.2126 145.13 25.3087C144.528 24.3797 144.226 23.3377 144.226 22.1828C144.226 20.375 144.892 18.9313 146.222 17.8517C147.578 16.7469 149.7 16.1946 152.587 16.1946H157.785V15.8933C157.785 14.4872 157.358 13.4076 156.504 12.6543C155.675 11.9011 154.433 11.5245 152.775 11.5245C151.646 11.5245 150.528 11.7002 149.424 12.0518C148.344 12.4033 147.428 12.8929 146.674 13.5206L144.829 10.0933C145.883 9.2899 147.151 8.67476 148.633 8.24792C150.114 7.82109 151.683 7.60767 153.34 7.60767ZM152.7 24.7814C153.88 24.7814 154.922 24.5178 155.826 23.9905C156.755 23.4382 157.408 22.6598 157.785 21.6555V19.3205H152.926C150.215 19.3205 148.859 20.2118 148.859 21.9945C148.859 22.8481 149.198 23.526 149.876 24.0282C150.553 24.5303 151.495 24.7814 152.7 24.7814Z" fill="white"/>
<path d="M168.534 0H173.242V27.945H168.534V0Z" fill="white"/>
<path d="M198.327 18.0023C198.327 18.3287 198.302 18.7932 198.251 19.3958H182.471C182.747 20.8772 183.463 22.0572 184.618 22.936C185.798 23.7897 187.254 24.2165 188.987 24.2165C191.196 24.2165 193.016 23.4884 194.448 22.0321L196.971 24.9321C196.067 26.0117 194.925 26.8277 193.544 27.3801C192.163 27.9325 190.606 28.2086 188.874 28.2086C186.664 28.2086 184.718 27.7693 183.036 26.8905C181.354 26.0117 180.048 24.794 179.119 23.2373C178.215 21.6555 177.763 19.8728 177.763 17.8893C177.763 15.9309 178.203 14.1734 179.082 12.6167C179.986 11.0349 181.228 9.80461 182.81 8.92583C184.392 8.04706 186.175 7.60767 188.158 7.60767C190.117 7.60767 191.862 8.04706 193.393 8.92583C194.95 9.7795 196.155 10.9972 197.009 12.579C197.887 14.1357 198.327 15.9435 198.327 18.0023ZM188.158 11.3738C186.652 11.3738 185.371 11.8258 184.317 12.7297C183.287 13.6084 182.66 14.7885 182.434 16.2699H193.845C193.644 14.8136 193.029 13.6336 192 12.7297C190.97 11.8258 189.69 11.3738 188.158 11.3738Z" fill="white"/>
<path d="M207.331 10.7713C208.686 8.6622 211.072 7.60767 214.486 7.60767V12.0894C214.085 12.0141 213.721 11.9764 213.394 11.9764C211.561 11.9764 210.13 12.5163 209.101 13.5959C208.071 14.6504 207.557 16.182 207.557 18.1906V27.945H202.849V7.83364H207.331V10.7713Z" fill="white"/>
<path d="M226.053 7.60767C229.015 7.60767 231.275 8.32325 232.832 9.75439C234.413 11.1604 235.204 13.2946 235.204 16.1569V27.945H230.76V25.497C230.183 26.3758 229.354 27.0537 228.275 27.5307C227.22 27.9827 225.94 28.2086 224.433 28.2086C222.927 28.2086 221.609 27.9576 220.479 27.4554C219.349 26.9281 218.47 26.2126 217.842 25.3087C217.24 24.3797 216.938 23.3377 216.938 22.1828C216.938 20.375 217.604 18.9313 218.935 17.8517C220.29 16.7469 222.412 16.1946 225.299 16.1946H230.497V15.8933C230.497 14.4872 230.07 13.4076 229.216 12.6543C228.388 11.9011 227.145 11.5245 225.488 11.5245C224.358 11.5245 223.241 11.7002 222.136 12.0518C221.056 12.4033 220.14 12.8929 219.386 13.5206L217.541 10.0933C218.596 9.2899 219.864 8.67476 221.345 8.24792C222.826 7.82109 224.395 7.60767 226.053 7.60767ZM225.412 24.7814C226.592 24.7814 227.634 24.5178 228.538 23.9905C229.467 23.4382 230.12 22.6598 230.497 21.6555V19.3205H225.638C222.927 19.3205 221.571 20.2118 221.571 21.9945C221.571 22.8481 221.91 23.526 222.588 24.0282C223.266 24.5303 224.207 24.7814 225.412 24.7814Z" fill="white"/>
<path d="M57.6208 70C54.9342 70 52.5113 69.4225 50.3521 68.2676C48.1928 67.0875 46.498 65.468 45.2677 63.4092C44.0374 61.3252 43.4223 59.0028 43.4223 56.4418C43.4223 53.8808 44.0374 51.5709 45.2677 49.512C46.498 47.4281 48.1928 45.8086 50.3521 44.6536C52.5113 43.4736 54.9342 42.8835 57.6208 42.8835C60.3073 42.8835 62.7302 43.4736 64.8895 44.6536C67.0488 45.8086 68.7435 47.4155 69.9738 49.4744C71.2041 51.5332 71.8193 53.8557 71.8193 56.4418C71.8193 59.0279 71.2041 61.3504 69.9738 63.4092C68.7435 65.468 67.0488 67.0875 64.8895 68.2676C62.7302 69.4225 60.3073 70 57.6208 70ZM57.6208 65.7066C59.3783 65.7066 60.9601 65.3174 62.3662 64.5391C63.7722 63.7356 64.8769 62.6309 65.6804 61.2248C66.4838 59.7937 66.8856 58.1993 66.8856 56.4418C66.8856 54.6842 66.4838 53.1024 65.6804 51.6964C64.8769 50.2652 63.7722 49.1605 62.3662 48.3822C60.9601 47.5787 59.3783 47.177 57.6208 47.177C55.8632 47.177 54.2814 47.5787 52.8754 48.3822C51.4694 49.1605 50.3646 50.2652 49.5612 51.6964C48.7577 53.1024 48.356 54.6842 48.356 56.4418C48.356 58.1993 48.7577 59.7937 49.5612 61.2248C50.3646 62.6309 51.4694 63.7356 52.8754 64.5391C54.2814 65.3174 55.8632 65.7066 57.6208 65.7066Z" fill="white"/>
<path d="M84.24 49.286C87.2027 49.286 89.4624 50.0016 91.0191 51.4328C92.6009 52.8388 93.3918 54.973 93.3918 57.8353V69.6234H88.9477V67.1754C88.3702 68.0541 87.5417 68.7321 86.462 69.2091C85.4075 69.6611 84.127 69.887 82.6205 69.887C81.1141 69.887 79.7959 69.6359 78.666 69.1338C77.5362 68.6065 76.6574 67.8909 76.0297 66.9871C75.4271 66.0581 75.1258 65.0161 75.1258 63.8611C75.1258 62.0534 75.7912 60.6097 77.1219 59.53C78.4777 58.4253 80.5993 57.8729 83.4867 57.8729H88.6841V57.5716C88.6841 56.1656 88.2572 55.086 87.4036 54.3327C86.575 53.5795 85.3322 53.2029 83.6751 53.2029C82.5452 53.2029 81.4279 53.3786 80.3232 53.7301C79.2435 54.0816 78.3271 54.5712 77.5739 55.1989L75.7284 51.7717C76.783 50.9683 78.0509 50.3531 79.5323 49.9263C81.0136 49.4995 82.5829 49.286 84.24 49.286ZM83.5997 66.4598C84.7798 66.4598 85.8218 66.1962 86.7257 65.6689C87.6546 65.1165 88.3074 64.3382 88.6841 63.3339V60.9988H83.8257C81.1141 60.9988 79.7582 61.8902 79.7582 63.6728C79.7582 64.5265 80.0972 65.2044 80.7751 65.7066C81.453 66.2087 82.3946 66.4598 83.5997 66.4598Z" fill="white"/>
<path d="M112.239 69.6234L107.079 62.656L101.882 69.6234H96.6842L104.518 59.4171L97.0232 49.512H102.258L107.192 56.1028L112.126 49.512H117.21L109.678 59.3417L117.549 69.6234H112.239Z" fill="white"/>
<path d="M128.338 49.286C131.301 49.286 133.56 50.0016 135.117 51.4328C136.699 52.8388 137.49 54.973 137.49 57.8353V69.6234H133.046V67.1754C132.468 68.0541 131.64 68.7321 130.56 69.2091C129.506 69.6611 128.225 69.887 126.719 69.887C125.212 69.887 123.894 69.6359 122.764 69.1338C121.634 68.6065 120.756 67.8909 120.128 66.9871C119.525 66.0581 119.224 65.0161 119.224 63.8611C119.224 62.0534 119.889 60.6097 121.22 59.53C122.576 58.4253 124.697 57.8729 127.585 57.8729H132.782V57.5716C132.782 56.1656 132.355 55.086 131.502 54.3327C130.673 53.5795 129.43 53.2029 127.773 53.2029C126.643 53.2029 125.526 53.3786 124.421 53.7301C123.342 54.0816 122.425 54.5712 121.672 55.1989L119.827 51.7717C120.881 50.9683 122.149 50.3531 123.63 49.9263C125.112 49.4995 126.681 49.286 128.338 49.286ZM127.698 66.4598C128.878 66.4598 129.92 66.1962 130.824 65.6689C131.753 65.1165 132.406 64.3382 132.782 63.3339V60.9988H127.924C125.212 60.9988 123.856 61.8902 123.856 63.6728C123.856 64.5265 124.195 65.2044 124.873 65.7066C125.551 66.2087 126.493 66.4598 127.698 66.4598Z" fill="white"/>
<path d="M152.943 69.887C150.859 69.887 148.988 69.4476 147.331 68.5689C145.674 67.6901 144.381 66.4724 143.452 64.9157C142.523 63.3339 142.058 61.5512 142.058 59.5677C142.058 57.5842 142.523 55.8141 143.452 54.2574C144.381 52.7007 145.661 51.483 147.293 50.6042C148.951 49.7254 150.834 49.286 152.943 49.286C154.926 49.286 156.659 49.6878 158.14 50.4912C159.646 51.2947 160.776 52.4496 161.53 53.9561L157.914 56.0652C157.337 55.1362 156.608 54.4457 155.73 53.9938C154.876 53.5167 153.934 53.2782 152.905 53.2782C151.147 53.2782 149.691 53.8557 148.536 55.0106C147.381 56.1405 146.804 57.6595 146.804 59.5677C146.804 61.4759 147.369 63.0075 148.499 64.1624C149.654 65.2923 151.122 65.8572 152.905 65.8572C153.934 65.8572 154.876 65.6312 155.73 65.1793C156.608 64.7022 157.337 63.9992 157.914 63.0702L161.53 65.1793C160.751 66.6858 159.609 67.8533 158.102 68.6818C156.621 69.4853 154.901 69.887 152.943 69.887Z" fill="white"/>
<path d="M173.282 49.286C176.245 49.286 178.504 50.0016 180.061 51.4328C181.643 52.8388 182.434 54.973 182.434 57.8353V69.6234H177.99V67.1754C177.412 68.0541 176.584 68.7321 175.504 69.2091C174.45 69.6611 173.169 69.887 171.663 69.887C170.156 69.887 168.838 69.6359 167.708 69.1338C166.578 68.6065 165.699 67.8909 165.072 66.9871C164.469 66.0581 164.168 65.0161 164.168 63.8611C164.168 62.0534 164.833 60.6097 166.164 59.53C167.52 58.4253 169.641 57.8729 172.529 57.8729H177.726V57.5716C177.726 56.1656 177.299 55.086 176.446 54.3327C175.617 53.5795 174.374 53.2029 172.717 53.2029C171.587 53.2029 170.47 53.3786 169.365 53.7301C168.286 54.0816 167.369 54.5712 166.616 55.1989L164.771 51.7717C165.825 50.9683 167.093 50.3531 168.574 49.9263C170.056 49.4995 171.625 49.286 173.282 49.286ZM172.642 66.4598C173.822 66.4598 174.864 66.1962 175.768 65.6689C176.697 65.1165 177.35 64.3382 177.726 63.3339V60.9988H172.868C170.156 60.9988 168.8 61.8902 168.8 63.6728C168.8 64.5265 169.139 65.2044 169.817 65.7066C170.495 66.2087 171.437 66.4598 172.642 66.4598Z" fill="white"/>
<path fill-rule="evenodd" clip-rule="evenodd" d="M20.3415 9.56078V20.0543C25.1699 21.3192 28.6835 25.7676 28.6835 30.8395V65.5137C28.6835 67.78 26.8403 69.6232 24.574 69.6232H5.10946C2.84321 69.6232 1 67.78 1 65.5137V30.8395C1 30.0946 1.07578 29.3471 1.22424 28.6184C1.37113 27.8995 2.07239 27.4359 2.79234 27.5823C3.51125 27.7292 3.97478 28.431 3.8284 29.1504C3.71525 29.7043 3.65763 30.2726 3.65763 30.8395V65.5137C3.65763 66.3141 4.30906 66.9656 5.10946 66.9656H24.574C25.3744 66.9656 26.0258 66.3141 26.0258 65.5137V30.8395C26.0258 26.6817 22.9249 23.0747 18.8123 22.4482C18.1635 22.3496 17.6839 21.7911 17.6839 21.1344V16.0123H11.9996V21.1344C11.9996 21.7911 11.52 22.3496 10.8706 22.4482C10.6671 22.4794 10.4574 22.5193 10.2477 22.5681C10.147 22.591 10.0463 22.6024 9.9477 22.6024C9.34298 22.6024 8.79589 22.1866 8.65418 21.572C8.51403 20.9663 8.81301 20.3621 9.34195 20.0906V9.56078H9.12809C8.39413 9.56078 7.79927 8.96593 7.79927 8.23196V5.57433C7.79927 3.37608 9.58746 1.58789 11.7857 1.58789H17.8983C20.096 1.58789 21.8847 3.37608 21.8847 5.57433V8.23196C21.8847 8.96593 21.2893 9.56078 20.5559 9.56078H20.3415ZM11.7857 4.24552C11.0528 4.24552 10.4569 4.84141 10.4569 5.57433V6.90315H19.2271V5.57433C19.2271 4.84141 18.6307 4.24552 17.8983 4.24552H11.7857ZM11.9996 9.56078V13.3546H17.6839V9.56078H11.9996ZM7.64411 58.8697C6.91067 58.8697 6.3153 58.2744 6.3153 57.5409V36.1548C6.3153 35.4208 6.91067 34.826 7.64411 34.826H22.0394C22.7734 34.826 23.3682 35.4208 23.3682 36.1548V57.5409C23.3682 58.2744 22.7734 58.8697 22.0394 58.8697H7.64411ZM20.7106 37.4836H8.97293V56.2121H20.7106V37.4836ZM14.842 42.8613C12.6437 42.8613 10.8555 44.65 10.8555 46.8478C10.8555 49.046 12.6437 50.8342 14.842 50.8342C17.0397 50.8342 18.8284 49.046 18.8284 46.8478C18.8284 44.65 17.0397 42.8613 14.842 42.8613ZM14.842 48.1766C14.1091 48.1766 13.5132 47.5807 13.5132 46.8478C13.5132 46.1154 14.1091 45.519 14.842 45.519C15.5744 45.519 16.1708 46.1154 16.1708 46.8478C16.1708 47.5807 15.5744 48.1766 14.842 48.1766ZM7.29996 62.9793C7.29996 62.2453 7.89481 61.6505 8.62877 61.6505H8.62929C9.36325 61.6505 9.95811 62.2453 9.95811 62.9793C9.95811 63.7127 9.36325 64.3081 8.62929 64.3081C7.89585 64.3081 7.29996 63.7127 7.29996 62.9793ZM21.9169 61.6505H13.944C13.2105 61.6505 12.6151 62.2453 12.6151 62.9793C12.6151 63.7127 13.2105 64.3081 13.944 64.3081H21.9169C22.6503 64.3081 23.2457 63.7127 23.2457 62.9793C23.2457 62.2453 22.6503 61.6505 21.9169 61.6505ZM6.07857 24.9209C5.81904 25.1804 5.47905 25.3102 5.13906 25.3102C4.79907 25.3102 4.45908 25.1804 4.19955 24.9209C3.68048 24.4018 3.68048 23.5604 4.19955 23.0419C4.71862 22.5228 5.56003 22.5223 6.07909 23.0413C6.59764 23.5604 6.59816 24.4013 6.07961 24.9204L6.07857 24.9209Z" fill="white"/>
<path d="M20.3415 20.0543H20.0915V20.2472L20.2782 20.2961L20.3415 20.0543ZM20.3415 9.56078V9.31078H20.0915V9.56078H20.3415ZM1.22424 28.6184L0.979298 28.5683L0.979268 28.5685L1.22424 28.6184ZM2.79234 27.5823L2.84239 27.3374L2.84215 27.3373L2.79234 27.5823ZM3.8284 29.1504L4.07334 29.2005L4.07338 29.2003L3.8284 29.1504ZM18.8123 22.4482L18.85 22.2011L18.8499 22.201L18.8123 22.4482ZM17.6839 16.0123H17.9339V15.7623H17.6839V16.0123ZM11.9996 16.0123V15.7623H11.7496V16.0123H11.9996ZM10.8706 22.4482L10.8331 22.201L10.8328 22.2011L10.8706 22.4482ZM10.2477 22.5681L10.303 22.8119L10.3044 22.8116L10.2477 22.5681ZM8.65418 21.572L8.89779 21.5159L8.89775 21.5157L8.65418 21.572ZM9.34195 20.0906L9.4561 20.313L9.59195 20.2433V20.0906H9.34195ZM9.34195 9.56078H9.59195V9.31078H9.34195V9.56078ZM10.4569 6.90315H10.2069V7.15315H10.4569V6.90315ZM19.2271 6.90315V7.15315H19.4771V6.90315H19.2271ZM11.9996 13.3546H11.7496V13.6046H11.9996V13.3546ZM11.9996 9.56078V9.31078H11.7496V9.56078H11.9996ZM17.6839 13.3546V13.6046H17.9339V13.3546H17.6839ZM17.6839 9.56078H17.9339V9.31078H17.6839V9.56078ZM8.97293 37.4836V37.2336H8.72293V37.4836H8.97293ZM20.7106 37.4836H20.9606V37.2336H20.7106V37.4836ZM8.97293 56.2121H8.72293V56.4621H8.97293V56.2121ZM20.7106 56.2121V56.4621H20.9606V56.2121H20.7106ZM6.07857 24.9209L5.96681 24.6973L5.9305 24.7154L5.9018 24.7441L6.07857 24.9209ZM4.19955 24.9209L4.37632 24.7441H4.37632L4.19955 24.9209ZM4.19955 23.0419L4.37624 23.2187L4.37632 23.2186L4.19955 23.0419ZM6.07909 23.0413L6.25596 22.8647L6.25587 22.8646L6.07909 23.0413ZM6.07961 24.9204L6.19138 25.144L6.22774 25.1258L6.25648 25.0971L6.07961 24.9204ZM20.5915 20.0543V9.56078H20.0915V20.0543H20.5915ZM28.9335 30.8395C28.9335 25.6523 25.3416 21.1058 20.4049 19.8124L20.2782 20.2961C24.9982 21.5327 28.4335 25.883 28.4335 30.8395H28.9335ZM28.9335 65.5137V30.8395H28.4335V65.5137H28.9335ZM24.574 69.8732C26.9783 69.8732 28.9335 67.9181 28.9335 65.5137H28.4335C28.4335 67.6419 26.7022 69.3732 24.574 69.3732V69.8732ZM5.10946 69.8732H24.574V69.3732H5.10946V69.8732ZM0.75 65.5137C0.75 67.9181 2.70514 69.8732 5.10946 69.8732V69.3732C2.98128 69.3732 1.25 67.6419 1.25 65.5137H0.75ZM0.75 30.8395V65.5137H1.25V30.8395H0.75ZM0.979268 28.5685C0.827486 29.3136 0.75 30.0778 0.75 30.8395H1.25C1.25 30.1114 1.32408 29.3807 1.46921 28.6683L0.979268 28.5685ZM2.84215 27.3373C1.98718 27.1635 1.15385 27.714 0.979299 28.5683L1.46918 28.6684C1.58841 28.0849 2.15761 27.7084 2.74253 27.8273L2.84215 27.3373ZM4.07338 29.2003C4.24723 28.3458 3.6967 27.5119 2.84239 27.3374L2.74229 27.8272C3.32581 27.9465 3.70233 28.5162 3.58342 29.1006L4.07338 29.2003ZM3.90763 30.8395C3.90763 30.2895 3.96355 29.7379 4.07334 29.2005L3.58346 29.1004C3.46695 29.6707 3.40763 30.2558 3.40763 30.8395H3.90763ZM3.90763 65.5137V30.8395H3.40763V65.5137H3.90763ZM5.10946 66.7156C4.44713 66.7156 3.90763 66.1761 3.90763 65.5137H3.40763C3.40763 66.4522 4.17099 67.2156 5.10946 67.2156V66.7156ZM24.574 66.7156H5.10946V67.2156H24.574V66.7156ZM25.7758 65.5137C25.7758 66.1761 25.2363 66.7156 24.574 66.7156V67.2156C25.5125 67.2156 26.2758 66.4522 26.2758 65.5137H25.7758ZM25.7758 30.8395V65.5137H26.2758V30.8395H25.7758ZM18.7747 22.6954C22.7653 23.3033 25.7758 26.8054 25.7758 30.8395H26.2758C26.2758 26.5581 23.0846 22.8462 18.85 22.2011L18.7747 22.6954ZM17.4339 21.1344C17.4339 21.9145 18.0036 22.5782 18.7748 22.6954L18.8499 22.201C18.3234 22.121 17.9339 21.6677 17.9339 21.1344H17.4339ZM17.4339 16.0123V21.1344H17.9339V16.0123H17.4339ZM11.9996 16.2623H17.6839V15.7623H11.9996V16.2623ZM12.2496 21.1344V16.0123H11.7496V21.1344H12.2496ZM10.9081 22.6954C11.6798 22.5782 12.2496 21.9145 12.2496 21.1344H11.7496C11.7496 21.6676 11.3601 22.121 10.8331 22.201L10.9081 22.6954ZM10.3044 22.8116C10.5077 22.7643 10.7111 22.7255 10.9084 22.6953L10.8328 22.2011C10.6232 22.2332 10.4072 22.2743 10.1911 22.3246L10.3044 22.8116ZM9.9477 22.8524C10.0656 22.8524 10.1848 22.8387 10.303 22.8119L10.1924 22.3243C10.1092 22.3432 10.0271 22.3524 9.9477 22.3524V22.8524ZM8.41057 21.6282C8.57902 22.3588 9.22918 22.8524 9.9477 22.8524V22.3524C9.45679 22.3524 9.01275 22.0144 8.89779 21.5159L8.41057 21.6282ZM9.22779 19.8682C8.59971 20.1905 8.24395 20.908 8.41061 21.6284L8.89775 21.5157C8.78411 21.0245 9.02632 20.5336 9.4561 20.313L9.22779 19.8682ZM9.09195 9.56078V20.0906H9.59195V9.56078H9.09195ZM9.12809 9.81078H9.34195V9.31078H9.12809V9.81078ZM7.54927 8.23196C7.54927 9.104 8.25606 9.81078 9.12809 9.81078V9.31078C8.5322 9.31078 8.04927 8.82786 8.04927 8.23196H7.54927ZM7.54927 5.57433V8.23196H8.04927V5.57433H7.54927ZM11.7857 1.33789C9.44939 1.33789 7.54927 3.23801 7.54927 5.57433H8.04927C8.04927 3.51415 9.72554 1.83789 11.7857 1.83789V1.33789ZM17.8983 1.33789H11.7857V1.83789H17.8983V1.33789ZM22.1347 5.57433C22.1347 3.23799 20.2341 1.33789 17.8983 1.33789V1.83789C19.958 1.83789 21.6347 3.51417 21.6347 5.57433H22.1347ZM22.1347 8.23196V5.57433H21.6347V8.23196H22.1347ZM20.5559 9.81078C21.4273 9.81078 22.1347 9.10406 22.1347 8.23196H21.6347C21.6347 8.82779 21.1513 9.31078 20.5559 9.31078V9.81078ZM20.3415 9.81078H20.5559V9.31078H20.3415V9.81078ZM10.7069 5.57433C10.7069 4.97948 11.1909 4.49552 11.7857 4.49552V3.99552C10.9147 3.99552 10.2069 4.70334 10.2069 5.57433H10.7069ZM10.7069 6.90315V5.57433H10.2069V6.90315H10.7069ZM19.2271 6.65315H10.4569V7.15315H19.2271V6.65315ZM18.9771 5.57433V6.90315H19.4771V5.57433H18.9771ZM17.8983 4.49552C18.4927 4.49552 18.9771 4.97955 18.9771 5.57433H19.4771C19.4771 4.70328 18.7687 3.99552 17.8983 3.99552V4.49552ZM11.7857 4.49552H17.8983V3.99552H11.7857V4.49552ZM12.2496 13.3546V9.56078H11.7496V13.3546H12.2496ZM17.6839 13.1046H11.9996V13.6046H17.6839V13.1046ZM17.4339 9.56078V13.3546H17.9339V9.56078H17.4339ZM11.9996 9.81078H17.6839V9.31078H11.9996V9.81078ZM6.0653 57.5409C6.0653 58.4124 6.7726 59.1197 7.64411 59.1197V58.6197C7.04874 58.6197 6.5653 58.1363 6.5653 57.5409H6.0653ZM6.0653 36.1548V57.5409H6.5653V36.1548H6.0653ZM7.64411 34.576C6.77266 34.576 6.0653 35.2827 6.0653 36.1548H6.5653C6.5653 35.559 7.04868 35.076 7.64411 35.076V34.576ZM22.0394 34.576H7.64411V35.076H22.0394V34.576ZM23.6182 36.1548C23.6182 35.2827 22.9115 34.576 22.0394 34.576V35.076C22.6353 35.076 23.1182 35.5589 23.1182 36.1548H23.6182ZM23.6182 57.5409V36.1548H23.1182V57.5409H23.6182ZM22.0394 59.1197C22.9115 59.1197 23.6182 58.4124 23.6182 57.5409H23.1182C23.1182 58.1363 22.6353 58.6197 22.0394 58.6197V59.1197ZM7.64411 59.1197H22.0394V58.6197H7.64411V59.1197ZM8.97293 37.7336H20.7106V37.2336H8.97293V37.7336ZM9.22293 56.2121V37.4836H8.72293V56.2121H9.22293ZM20.7106 55.9621H8.97293V56.4621H20.7106V55.9621ZM20.4606 37.4836V56.2121H20.9606V37.4836H20.4606ZM11.1055 46.8478C11.1055 44.7881 12.7818 43.1113 14.842 43.1113V42.6113C12.5056 42.6113 10.6055 44.512 10.6055 46.8478H11.1055ZM14.842 50.5842C12.7818 50.5842 11.1055 48.908 11.1055 46.8478H10.6055C10.6055 49.1841 12.5057 51.0842 14.842 51.0842V50.5842ZM18.5784 46.8478C18.5784 48.9079 16.9017 50.5842 14.842 50.5842V51.0842C17.1778 51.0842 19.0784 49.1841 19.0784 46.8478H18.5784ZM14.842 43.1113C16.9016 43.1113 18.5784 44.7881 18.5784 46.8478H19.0784C19.0784 44.512 17.1778 42.6113 14.842 42.6113V43.1113ZM13.2632 46.8478C13.2632 47.7188 13.971 48.4266 14.842 48.4266V47.9266C14.2471 47.9266 13.7632 47.4426 13.7632 46.8478H13.2632ZM14.842 45.269C13.9709 45.269 13.2632 45.9774 13.2632 46.8478H13.7632C13.7632 46.2534 14.2472 45.769 14.842 45.769V45.269ZM16.4208 46.8478C16.4208 45.9773 15.7125 45.269 14.842 45.269V45.769C15.4363 45.769 15.9208 46.2534 15.9208 46.8478H16.4208ZM14.842 48.4266C15.7124 48.4266 16.4208 47.7188 16.4208 46.8478H15.9208C15.9208 47.4426 15.4364 47.9266 14.842 47.9266V48.4266ZM8.62877 61.4005C7.75674 61.4005 7.04996 62.1073 7.04996 62.9793H7.54996C7.54996 62.3834 8.03288 61.9005 8.62877 61.9005V61.4005ZM8.62929 61.4005H8.62877V61.9005H8.62929V61.4005ZM10.2081 62.9793C10.2081 62.1073 9.50132 61.4005 8.62929 61.4005V61.9005C9.22518 61.9005 9.70811 62.3834 9.70811 62.9793H10.2081ZM8.62929 64.5581C9.50139 64.5581 10.2081 63.8507 10.2081 62.9793H9.70811C9.70811 63.5747 9.22512 64.0581 8.62929 64.0581V64.5581ZM7.04996 62.9793C7.04996 63.8509 7.7579 64.5581 8.62929 64.5581V64.0581C8.03379 64.0581 7.54996 63.5745 7.54996 62.9793H7.04996ZM13.944 61.9005H21.9169V61.4005H13.944V61.9005ZM12.8651 62.9793C12.8651 62.3835 13.3485 61.9005 13.944 61.9005V61.4005C13.0725 61.4005 12.3651 62.1072 12.3651 62.9793H12.8651ZM13.944 64.0581C13.3486 64.0581 12.8651 63.5747 12.8651 62.9793H12.3651C12.3651 63.8508 13.0724 64.5581 13.944 64.5581V64.0581ZM21.9169 64.0581H13.944V64.5581H21.9169V64.0581ZM22.9957 62.9793C22.9957 63.5747 22.5122 64.0581 21.9169 64.0581V64.5581C22.7884 64.5581 23.4957 63.8508 23.4957 62.9793H22.9957ZM21.9169 61.9005C22.5123 61.9005 22.9957 62.3835 22.9957 62.9793H23.4957C23.4957 62.1072 22.7883 61.4005 21.9169 61.4005V61.9005ZM5.13906 25.5602C5.5427 25.5602 5.94709 25.4059 6.25535 25.0977L5.9018 24.7441C5.691 24.9549 5.41541 25.0602 5.13906 25.0602V25.5602ZM4.02277 25.0977C4.33104 25.4059 4.73543 25.5602 5.13906 25.5602V25.0602C4.86272 25.0602 4.58713 24.9549 4.37632 24.7441L4.02277 25.0977ZM4.02286 22.865C3.40599 23.4812 3.40612 24.481 4.02277 25.0977L4.37632 24.7441C3.95484 24.3226 3.95497 23.6396 4.37624 23.2187L4.02286 22.865ZM6.25587 22.8646C5.63904 22.2477 4.63934 22.2485 4.02277 22.8651L4.37632 23.2186C4.79789 22.7971 5.48101 22.7968 5.90232 23.2181L6.25587 22.8646ZM6.25648 25.0971C6.87267 24.4803 6.87189 23.4812 6.25596 22.8647L5.90223 23.218C6.32339 23.6396 6.32366 24.3224 5.90275 24.7437L6.25648 25.0971ZM6.19034 25.1445L6.19138 25.144L5.96785 24.6967L5.96681 24.6973L6.19034 25.1445Z" fill="white"/>
</svg>
