<svg width="135" height="41" viewBox="0 0 135 41" fill="none" xmlns="http://www.w3.org/2000/svg">
<path d="M40.1301 15.9686L40.1086 5.98284L35.1588 14.2469H33.9106L28.9607 6.11196V15.9686H26.2921V0.903882H28.5949L34.5777 10.8896L40.453 0.903882H42.7557L42.7772 15.9686H40.1301Z" fill="#222222"/>
<path d="M57.3917 10.287C57.3917 10.4736 57.3773 10.739 57.3486 11.0833H48.3313C48.4891 11.9298 48.898 12.6041 49.558 13.1063C50.2323 13.5941 51.0645 13.838 52.0545 13.838C53.317 13.838 54.3572 13.4219 55.175 12.5898L56.6169 14.2469C56.1004 14.8638 55.4476 15.3301 54.6585 15.6458C53.8694 15.9614 52.9799 16.1192 51.9899 16.1192C50.7273 16.1192 49.6154 15.8681 48.6541 15.366C47.6929 14.8638 46.9468 14.168 46.416 13.2785C45.8995 12.3746 45.6412 11.3559 45.6412 10.2225C45.6412 9.10338 45.8923 8.09907 46.3944 7.20953C46.9109 6.30565 47.6211 5.60263 48.525 5.10048C49.4289 4.59832 50.4476 4.34724 51.581 4.34724C52.7001 4.34724 53.6972 4.59832 54.5724 5.10048C55.462 5.58829 56.1506 6.28413 56.6384 7.18801C57.1406 8.07755 57.3917 9.11056 57.3917 10.287ZM51.581 6.49934C50.7202 6.49934 49.9884 6.75759 49.3859 7.2741C48.7976 7.77625 48.4389 8.45058 48.3098 9.29707H54.8307C54.7159 8.46493 54.3644 7.7906 53.7761 7.2741C53.1879 6.75759 52.4562 6.49934 51.581 6.49934Z" fill="#222222"/>
<path d="M68.8449 13.8165V15.9686H58.9237V14.2684L65.2293 6.62847H59.0528V4.47637H68.6727V6.17653L62.3455 13.8165H68.8449Z" fill="#222222"/>
<path d="M76.4292 16.1192C75.2383 16.1192 74.1695 15.8681 73.2225 15.366C72.2756 14.8638 71.5367 14.168 71.0059 13.2785C70.475 12.3746 70.2096 11.3559 70.2096 10.2225C70.2096 9.08903 70.475 8.07755 71.0059 7.18801C71.5367 6.29848 72.2685 5.60263 73.201 5.10048C74.1479 4.59832 75.224 4.34724 76.4292 4.34724C77.5626 4.34724 78.5526 4.5768 79.3991 5.03591C80.2599 5.49503 80.9055 6.15501 81.336 7.01585L79.2699 8.22102C78.94 7.69017 78.5239 7.29562 78.0217 7.03737C77.5339 6.76477 76.9959 6.62847 76.4077 6.62847C75.4033 6.62847 74.5712 6.95846 73.9112 7.61843C73.2512 8.26406 72.9213 9.13208 72.9213 10.2225C72.9213 11.3129 73.2441 12.1881 73.8897 12.848C74.5497 13.4937 75.389 13.8165 76.4077 13.8165C76.9959 13.8165 77.5339 13.6874 78.0217 13.4291C78.5239 13.1565 78.94 12.7548 79.2699 12.2239L81.336 13.4291C80.8912 14.2899 80.2384 14.9571 79.3776 15.4306C78.5311 15.8897 77.5483 16.1192 76.4292 16.1192Z" fill="#222222"/>
<path d="M88.0517 4.34724C89.7447 4.34724 91.0359 4.75614 91.9255 5.57394C92.8294 6.37739 93.2813 7.59691 93.2813 9.23251V15.9686H90.7418V14.5697C90.4118 15.0719 89.9384 15.4593 89.3214 15.7318C88.7188 15.9901 87.9871 16.1192 87.1263 16.1192C86.2654 16.1192 85.5122 15.9758 84.8666 15.6888C84.221 15.3875 83.7188 14.9786 83.3601 14.4621C83.0158 13.9313 82.8436 13.3358 82.8436 12.6759C82.8436 11.6429 83.2238 10.8179 83.9842 10.201C84.759 9.56967 85.9713 9.25403 87.6213 9.25403H90.5912V9.08186C90.5912 8.27841 90.3473 7.66148 89.8595 7.23106C89.386 6.80064 88.6758 6.58543 87.7289 6.58543C87.0832 6.58543 86.4448 6.68586 85.8135 6.88672C85.1966 7.08758 84.6729 7.36735 84.2425 7.72604L83.1879 5.76763C83.7905 5.30851 84.5151 4.957 85.3616 4.7131C86.2081 4.46919 87.1048 4.34724 88.0517 4.34724ZM87.6858 14.1608C88.3602 14.1608 88.9556 14.0102 89.4721 13.7089C90.0029 13.3932 90.376 12.9485 90.5912 12.3746V11.0403H87.815C86.2654 11.0403 85.4907 11.5496 85.4907 12.5683C85.4907 13.0561 85.6844 13.4434 86.0718 13.7304C86.4591 14.0173 86.9972 14.1608 87.6858 14.1608Z" fill="#222222"/>
<path d="M96.7337 0H99.4239V15.9686H96.7337V0Z" fill="#222222"/>
<path d="M113.758 10.287C113.758 10.4736 113.744 10.739 113.715 11.0833H104.698C104.856 11.9298 105.265 12.6041 105.925 13.1063C106.599 13.5941 107.431 13.838 108.421 13.838C109.684 13.838 110.724 13.4219 111.542 12.5898L112.983 14.2469C112.467 14.8638 111.814 15.3301 111.025 15.6458C110.236 15.9614 109.346 16.1192 108.356 16.1192C107.094 16.1192 105.982 15.8681 105.021 15.366C104.059 14.8638 103.313 14.168 102.782 13.2785C102.266 12.3746 102.008 11.3559 102.008 10.2225C102.008 9.10338 102.259 8.09907 102.761 7.20953C103.277 6.30565 103.988 5.60263 104.892 5.10048C105.795 4.59832 106.814 4.34724 107.948 4.34724C109.067 4.34724 110.064 4.59832 110.939 5.10048C111.828 5.58829 112.517 6.28413 113.005 7.18801C113.507 8.07755 113.758 9.11056 113.758 10.287ZM107.948 6.49934C107.087 6.49934 106.355 6.75759 105.752 7.2741C105.164 7.77625 104.805 8.45058 104.676 9.29707H111.197C111.082 8.46493 110.731 7.7906 110.143 7.2741C109.554 6.75759 108.823 6.49934 107.948 6.49934Z" fill="#222222"/>
<path d="M118.903 6.15501C119.678 4.94983 121.041 4.34724 122.992 4.34724V6.90824C122.763 6.8652 122.555 6.84368 122.368 6.84368C121.321 6.84368 120.503 7.15214 119.915 7.76908C119.326 8.37167 119.032 9.24685 119.032 10.3946V15.9686H116.342V4.47637H118.903V6.15501Z" fill="#222222"/>
<path d="M129.602 4.34724C131.294 4.34724 132.586 4.75614 133.475 5.57394C134.379 6.37739 134.831 7.59691 134.831 9.23251V15.9686H132.292V14.5697C131.962 15.0719 131.488 15.4593 130.871 15.7318C130.269 15.9901 129.537 16.1192 128.676 16.1192C127.815 16.1192 127.062 15.9758 126.416 15.6888C125.771 15.3875 125.269 14.9786 124.91 14.4621C124.566 13.9313 124.393 13.3358 124.393 12.6759C124.393 11.6429 124.774 10.8179 125.534 10.201C126.309 9.56967 127.521 9.25403 129.171 9.25403H132.141V9.08186C132.141 8.27841 131.897 7.66148 131.409 7.23106C130.936 6.80064 130.226 6.58543 129.279 6.58543C128.633 6.58543 127.995 6.68586 127.363 6.88672C126.746 7.08758 126.223 7.36735 125.792 7.72604L124.738 5.76763C125.34 5.30851 126.065 4.957 126.911 4.7131C127.758 4.46919 128.655 4.34724 129.602 4.34724ZM129.236 14.1608C129.91 14.1608 130.505 14.0102 131.022 13.7089C131.553 13.3932 131.926 12.9485 132.141 12.3746V11.0403H129.365C127.815 11.0403 127.041 11.5496 127.041 12.5683C127.041 13.0561 127.234 13.4434 127.622 13.7304C128.009 14.0173 128.547 14.1608 129.236 14.1608Z" fill="#222222"/>
<path d="M33.3547 40C31.8196 40 30.435 39.67 29.2012 39.01C27.9673 38.3357 26.9989 37.4103 26.2958 36.2338C25.5928 35.043 25.2413 33.7159 25.2413 32.2524C25.2413 30.789 25.5928 29.4691 26.2958 28.2926C26.9989 27.1017 27.9673 26.1763 29.2012 25.5164C30.435 24.842 31.8196 24.5049 33.3547 24.5049C34.8899 24.5049 36.2744 24.842 37.5083 25.5164C38.7421 26.1763 39.7106 27.0946 40.4136 28.2711C41.1166 29.4475 41.4681 30.7747 41.4681 32.2524C41.4681 33.7302 41.1166 35.0573 40.4136 36.2338C39.7106 37.4103 38.7421 38.3357 37.5083 39.01C36.2744 39.67 34.8899 40 33.3547 40ZM33.3547 37.5466C34.359 37.5466 35.2629 37.3242 36.0664 36.8795C36.8698 36.4203 37.5011 35.7891 37.9602 34.9856C38.4193 34.1678 38.6489 33.2568 38.6489 32.2524C38.6489 31.2481 38.4193 30.3442 37.9602 29.5408C37.5011 28.723 36.8698 28.0917 36.0664 27.6469C35.2629 27.1878 34.359 26.9583 33.3547 26.9583C32.3504 26.9583 31.4465 27.1878 30.6431 27.6469C29.8396 28.0917 29.2083 28.723 28.7492 29.5408C28.2901 30.3442 28.0606 31.2481 28.0606 32.2524C28.0606 33.2568 28.2901 34.1678 28.7492 34.9856C29.2083 35.7891 29.8396 36.4203 30.6431 36.8795C31.4465 37.3242 32.3504 37.5466 33.3547 37.5466Z" fill="#222222"/>
<path d="M48.5657 28.1635C50.2587 28.1635 51.5499 28.5724 52.4395 29.3902C53.3434 30.1936 53.7953 31.4131 53.7953 33.0487V39.7848H51.2558V38.3859C50.9258 38.8881 50.4524 39.2755 49.8354 39.5481C49.2328 39.8063 48.5011 39.9354 47.6403 39.9354C46.7794 39.9354 46.0262 39.792 45.3806 39.505C44.735 39.2037 44.2328 38.7948 43.8741 38.2783C43.5298 37.7475 43.3576 37.1521 43.3576 36.4921C43.3576 35.4591 43.7378 34.6341 44.4982 34.0172C45.273 33.3859 46.4853 33.0702 48.1353 33.0702H51.1052V32.8981C51.1052 32.0946 50.8613 31.4777 50.3735 31.0473C49.9 30.6168 49.1898 30.4016 48.2429 30.4016C47.5972 30.4016 46.9588 30.5021 46.3275 30.7029C45.7106 30.9038 45.1869 31.1836 44.7565 31.5422L43.7019 29.5838C44.3045 29.1247 45.0291 28.7732 45.8756 28.5293C46.7221 28.2854 47.6188 28.1635 48.5657 28.1635ZM48.1998 37.977C48.8742 37.977 49.4696 37.8264 49.9861 37.5251C50.5169 37.2094 50.89 36.7647 51.1052 36.1908V34.8565H48.329C46.7794 34.8565 46.0047 35.3658 46.0047 36.3845C46.0047 36.8723 46.1984 37.2597 46.5858 37.5466C46.9731 37.8336 47.5112 37.977 48.1998 37.977Z" fill="#222222"/>
<path d="M64.5649 39.7848L61.6165 35.8034L58.6466 39.7848H55.6767L60.1531 33.9526L55.8704 28.2926H58.8618L61.6811 32.0588L64.5003 28.2926H67.4056L63.1014 33.9096L67.5993 39.7848H64.5649Z" fill="#222222"/>
<path d="M73.7646 28.1635C75.4576 28.1635 76.7488 28.5724 77.6384 29.3902C78.5423 30.1936 78.9942 31.4131 78.9942 33.0487V39.7848H76.4547V38.3859C76.1247 38.8881 75.6513 39.2755 75.0343 39.5481C74.4317 39.8063 73.7 39.9354 72.8392 39.9354C71.9784 39.9354 71.2251 39.792 70.5795 39.505C69.9339 39.2037 69.4317 38.7948 69.073 38.2783C68.7287 37.7475 68.5565 37.1521 68.5565 36.4921C68.5565 35.4591 68.9367 34.6341 69.6971 34.0172C70.4719 33.3859 71.6842 33.0702 73.3342 33.0702H76.3041V32.8981C76.3041 32.0946 76.0602 31.4777 75.5724 31.0473C75.0989 30.6168 74.3887 30.4016 73.4418 30.4016C72.7962 30.4016 72.1577 30.5021 71.5264 30.7029C70.9095 30.9038 70.3858 31.1836 69.9554 31.5422L68.9008 29.5838C69.5034 29.1247 70.228 28.7732 71.0745 28.5293C71.921 28.2854 72.8177 28.1635 73.7646 28.1635ZM73.3987 37.977C74.0731 37.977 74.6685 37.8264 75.185 37.5251C75.7158 37.2094 76.0889 36.7647 76.3041 36.1908V34.8565H73.5279C71.9784 34.8565 71.2036 35.3658 71.2036 36.3845C71.2036 36.8723 71.3973 37.2597 71.7847 37.5466C72.172 37.8336 72.7101 37.977 73.3987 37.977Z" fill="#222222"/>
<path d="M87.8244 39.9354C86.6335 39.9354 85.5647 39.6844 84.6177 39.1822C83.6708 38.68 82.9319 37.9842 82.4011 37.0947C81.8702 36.1908 81.6048 35.1721 81.6048 34.0387C81.6048 32.9052 81.8702 31.8938 82.4011 31.0042C82.9319 30.1147 83.6636 29.4188 84.5962 28.9167C85.5431 28.4145 86.6192 28.1635 87.8244 28.1635C88.9578 28.1635 89.9478 28.393 90.7943 28.8521C91.6551 29.3112 92.3007 29.9712 92.7311 30.8321L90.6651 32.0372C90.3351 31.5064 89.9191 31.1118 89.4169 30.8536C88.9291 30.581 88.3911 30.4447 87.8028 30.4447C86.7985 30.4447 85.9664 30.7747 85.3064 31.4346C84.6464 32.0803 84.3164 32.9483 84.3164 34.0387C84.3164 35.1291 84.6393 36.0043 85.2849 36.6642C85.9449 37.3099 86.7842 37.6327 87.8028 37.6327C88.3911 37.6327 88.9291 37.5036 89.4169 37.2453C89.9191 36.9727 90.3351 36.571 90.6651 36.0401L92.7311 37.2453C92.2864 38.1062 91.6336 38.7733 90.7727 39.2468C89.9262 39.7059 88.9435 39.9354 87.8244 39.9354Z" fill="#222222"/>
<path d="M99.4469 28.1635C101.14 28.1635 102.431 28.5724 103.321 29.3902C104.225 30.1936 104.676 31.4131 104.676 33.0487V39.7848H102.137V38.3859C101.807 38.8881 101.334 39.2755 100.717 39.5481C100.114 39.8063 99.3823 39.9354 98.5215 39.9354C97.6606 39.9354 96.9074 39.792 96.2618 39.505C95.6161 39.2037 95.114 38.7948 94.7553 38.2783C94.411 37.7475 94.2388 37.1521 94.2388 36.4921C94.2388 35.4591 94.619 34.6341 95.3794 34.0172C96.1542 33.3859 97.3665 33.0702 99.0165 33.0702H101.986V32.8981C101.986 32.0946 101.742 31.4777 101.255 31.0473C100.781 30.6168 100.071 30.4016 99.1241 30.4016C98.4784 30.4016 97.84 30.5021 97.2087 30.7029C96.5918 30.9038 96.0681 31.1836 95.6377 31.5422L94.5831 29.5838C95.1857 29.1247 95.9103 28.7732 96.7568 28.5293C97.6032 28.2854 98.5 28.1635 99.4469 28.1635ZM99.081 37.977C99.7553 37.977 100.351 37.8264 100.867 37.5251C101.398 37.2094 101.771 36.7647 101.986 36.1908V34.8565H99.2101C97.6606 34.8565 96.8859 35.3658 96.8859 36.3845C96.8859 36.8723 97.0796 37.2597 97.4669 37.5466C97.8543 37.8336 98.3923 37.977 99.081 37.977Z" fill="#222222"/>
<path fill-rule="evenodd" clip-rule="evenodd" d="M12.0523 5.46341V11.4597C14.8114 12.1825 16.8191 14.7245 16.8191 17.6227V37.4365C16.8191 38.7315 15.7659 39.7848 14.4709 39.7848H3.34826C2.05326 39.7848 1 38.7315 1 37.4365V17.6227C1 17.197 1.04331 16.7699 1.12814 16.3535C1.21208 15.9427 1.6128 15.6778 2.0242 15.7614C2.435 15.8454 2.69987 16.2464 2.61623 16.6575C2.55157 16.974 2.51865 17.2988 2.51865 17.6227V37.4365C2.51865 37.8939 2.89089 38.2662 3.34826 38.2662H14.4709C14.9282 38.2662 15.3005 37.8939 15.3005 37.4365V17.6227C15.3005 15.2468 13.5285 13.1857 11.1785 12.8277C10.8077 12.7713 10.5337 12.4521 10.5337 12.0769V9.14998H7.28547V12.0769C7.28547 12.4521 7.0114 12.7713 6.64034 12.8277C6.52407 12.8454 6.40424 12.8683 6.28441 12.8962C6.22687 12.9092 6.16933 12.9157 6.11297 12.9157C5.76742 12.9157 5.45479 12.6782 5.37382 12.327C5.29373 11.9808 5.46458 11.6356 5.76683 11.4804V5.46341H5.64462C5.22522 5.46341 4.8853 5.12349 4.8853 4.70408V3.18544C4.8853 1.92929 5.90712 0.907471 7.16327 0.907471H10.6562C11.912 0.907471 12.9341 1.92929 12.9341 3.18544V4.70408C12.9341 5.12349 12.5939 5.46341 12.1748 5.46341H12.0523ZM7.16327 2.42612C6.74445 2.42612 6.40395 2.76663 6.40395 3.18544V3.94476H11.4155V3.18544C11.4155 2.76663 11.0747 2.42612 10.6562 2.42612H7.16327ZM7.28547 5.46341V7.63133H10.5337V5.46341H7.28547ZM4.79662 33.6399C4.3775 33.6399 4.03729 33.2997 4.03729 32.8806V20.6599C4.03729 20.2405 4.3775 19.9006 4.79662 19.9006H13.0225C13.4419 19.9006 13.7818 20.2405 13.7818 20.6599V32.8806C13.7818 33.2997 13.4419 33.6399 13.0225 33.6399H4.79662ZM12.2632 21.4193H5.55594V32.1213H12.2632V21.4193ZM8.90971 24.4921C7.65356 24.4921 6.63174 25.5143 6.63174 26.7701C6.63174 28.0263 7.65356 29.0481 8.90971 29.0481C10.1656 29.0481 11.1877 28.0263 11.1877 26.7701C11.1877 25.5143 10.1656 24.4921 8.90971 24.4921ZM8.90971 27.5294C8.4909 27.5294 8.15039 27.1889 8.15039 26.7701C8.15039 26.3516 8.4909 26.0108 8.90971 26.0108C9.32823 26.0108 9.66903 26.3516 9.66903 26.7701C9.66903 27.1889 9.32823 27.5294 8.90971 27.5294ZM4.59996 35.9882C4.59996 35.5688 4.93988 35.2289 5.35929 35.2289H5.35958C5.77899 35.2289 6.11891 35.5688 6.11891 35.9882C6.11891 36.4073 5.77899 36.7475 5.35958 36.7475C4.94047 36.7475 4.59996 36.4073 4.59996 35.9882ZM12.9525 35.2289H8.39657C7.97746 35.2289 7.63725 35.5688 7.63725 35.9882C7.63725 36.4073 7.97746 36.7475 8.39657 36.7475H12.9525C13.3716 36.7475 13.7118 36.4073 13.7118 35.9882C13.7118 35.5688 13.3716 35.2289 12.9525 35.2289ZM3.90204 14.2404C3.75374 14.3887 3.55946 14.4629 3.36518 14.4629C3.1709 14.4629 2.97662 14.3887 2.82831 14.2404C2.5317 13.9438 2.5317 13.463 2.82831 13.1667C3.12492 12.8701 3.60573 12.8698 3.90234 13.1664C4.19865 13.463 4.19895 13.9435 3.90264 14.2401L3.90204 14.2404Z" fill="#222222"/>
<path d="M12.0523 11.4597H11.8023V11.6526L11.9889 11.7015L12.0523 11.4597ZM12.0523 5.46341V5.21341H11.8023V5.46341H12.0523ZM1.12814 16.3535L0.883197 16.3034L0.883167 16.3036L1.12814 16.3535ZM2.0242 15.7614L2.07424 15.5165L2.07401 15.5164L2.0242 15.7614ZM2.61623 16.6575L2.86117 16.7075L2.86121 16.7073L2.61623 16.6575ZM11.1785 12.8277L11.2161 12.5805L11.2161 12.5805L11.1785 12.8277ZM10.5337 9.14998H10.7837V8.89998H10.5337V9.14998ZM7.28547 9.14998V8.89998H7.03547V9.14998H7.28547ZM6.64034 12.8277L6.60281 12.5805L6.60252 12.5805L6.64034 12.8277ZM6.28441 12.8962L6.33971 13.14L6.34106 13.1397L6.28441 12.8962ZM5.37382 12.327L5.61743 12.2708L5.61738 12.2706L5.37382 12.327ZM5.76683 11.4804L5.88098 11.7029L6.01683 11.6331V11.4804H5.76683ZM5.76683 5.46341H6.01683V5.21341H5.76683V5.46341ZM6.40395 3.94476H6.15395V4.19476H6.40395V3.94476ZM11.4155 3.94476V4.19476H11.6655V3.94476H11.4155ZM7.28547 7.63133H7.03547V7.88133H7.28547V7.63133ZM7.28547 5.46341V5.21341H7.03547V5.46341H7.28547ZM10.5337 7.63133V7.88133H10.7837V7.63133H10.5337ZM10.5337 5.46341H10.7837V5.21341H10.5337V5.46341ZM5.55594 21.4193V21.1693H5.30594V21.4193H5.55594ZM12.2632 21.4193H12.5132V21.1693H12.2632V21.4193ZM5.55594 32.1213H5.30594V32.3713H5.55594V32.1213ZM12.2632 32.1213V32.3713H12.5132V32.1213H12.2632ZM3.90204 14.2404L3.79024 14.0168L3.75395 14.0349L3.72527 14.0636L3.90204 14.2404ZM2.82831 14.2404L2.65154 14.4172H2.65154L2.82831 14.2404ZM2.82831 13.1667L3.005 13.3435L3.00509 13.3435L2.82831 13.1667ZM3.90234 13.1664L4.07921 12.9897L4.07912 12.9896L3.90234 13.1664ZM3.90264 14.2401L4.01444 14.4637L4.05078 14.4455L4.0795 14.4168L3.90264 14.2401ZM12.3023 11.4597V5.46341H11.8023V11.4597H12.3023ZM17.0691 17.6227C17.0691 14.6091 14.983 11.9691 12.1157 11.2178L11.9889 11.7015C14.6397 12.396 16.5691 14.8398 16.5691 17.6227H17.0691ZM17.0691 37.4365V17.6227H16.5691V37.4365H17.0691ZM14.4709 40.0348C15.9039 40.0348 17.0691 38.8696 17.0691 37.4365H16.5691C16.5691 38.5935 15.6278 39.5348 14.4709 39.5348V40.0348ZM3.34826 40.0348H14.4709V39.5348H3.34826V40.0348ZM0.75 37.4365C0.75 38.8696 1.91519 40.0348 3.34826 40.0348V39.5348C2.19134 39.5348 1.25 38.5935 1.25 37.4365H0.75ZM0.75 17.6227V37.4365H1.25V17.6227H0.75ZM0.883167 16.3036C0.795007 16.7363 0.75 17.1802 0.75 17.6227H1.25C1.25 17.2139 1.2916 16.8035 1.3731 16.4034L0.883167 16.3036ZM2.07401 15.5164C1.52758 15.4053 0.994798 15.7572 0.883197 16.3034L1.37307 16.4035C1.42936 16.1281 1.69801 15.9502 1.97439 16.0064L2.07401 15.5164ZM2.86121 16.7073C2.97233 16.1612 2.62045 15.6281 2.07424 15.5165L1.97415 16.0064C2.24955 16.0626 2.42742 16.3316 2.37125 16.6076L2.86121 16.7073ZM2.76865 17.6227C2.76865 17.3156 2.79987 17.0076 2.86117 16.7075L2.37129 16.6074C2.30327 16.9404 2.26865 17.2819 2.26865 17.6227H2.76865ZM2.76865 37.4365V17.6227H2.26865V37.4365H2.76865ZM3.34826 38.0162C3.02896 38.0162 2.76865 37.7558 2.76865 37.4365H2.26865C2.26865 38.032 2.75282 38.5162 3.34826 38.5162V38.0162ZM14.4709 38.0162H3.34826V38.5162H14.4709V38.0162ZM15.0505 37.4365C15.0505 37.7558 14.7902 38.0162 14.4709 38.0162V38.5162C15.0663 38.5162 15.5505 38.032 15.5505 37.4365H15.0505ZM15.0505 17.6227V37.4365H15.5505V17.6227H15.0505ZM11.1408 13.0748C13.3689 13.4142 15.0505 15.3705 15.0505 17.6227H15.5505C15.5505 15.1232 13.6882 12.9571 11.2161 12.5805L11.1408 13.0748ZM10.2837 12.0769C10.2837 12.5756 10.6478 12.9999 11.1409 13.0748L11.2161 12.5805C10.9676 12.5427 10.7837 12.3287 10.7837 12.0769H10.2837ZM10.2837 9.14998V12.0769H10.7837V9.14998H10.2837ZM7.28547 9.39998H10.5337V8.89998H7.28547V9.39998ZM7.53547 12.0769V9.14998H7.03547V12.0769H7.53547ZM6.67788 13.0748C7.17122 12.9999 7.53547 12.5756 7.53547 12.0769H7.03547C7.03547 12.3287 6.85158 12.5427 6.60281 12.5805L6.67788 13.0748ZM6.34106 13.1397C6.4545 13.1133 6.56804 13.0916 6.67817 13.0748L6.60252 12.5805C6.4801 12.5993 6.35399 12.6233 6.22776 12.6527L6.34106 13.1397ZM6.11297 13.1657C6.18859 13.1657 6.26468 13.157 6.33971 13.14L6.22911 12.6524C6.18906 12.6614 6.15006 12.6657 6.11297 12.6657V13.1657ZM5.13021 12.3831C5.23793 12.8503 5.65362 13.1657 6.11297 13.1657V12.6657C5.88122 12.6657 5.67165 12.506 5.61743 12.2708L5.13021 12.3831ZM5.65267 11.258C5.25127 11.464 5.02366 11.9226 5.13025 12.3833L5.61738 12.2706C5.56381 12.0391 5.67789 11.8071 5.88098 11.7029L5.65267 11.258ZM5.51683 5.46341V11.4804H6.01683V5.46341H5.51683ZM5.64462 5.71341H5.76683V5.21341H5.64462V5.71341ZM4.6353 4.70408C4.6353 5.26156 5.08714 5.71341 5.64462 5.71341V5.21341C5.36329 5.21341 5.1353 4.98542 5.1353 4.70408H4.6353ZM4.6353 3.18544V4.70408H5.1353V3.18544H4.6353ZM7.16327 0.657471C5.76905 0.657471 4.6353 1.79122 4.6353 3.18544H5.1353C5.1353 2.06736 6.04519 1.15747 7.16327 1.15747V0.657471ZM10.6562 0.657471H7.16327V1.15747H10.6562V0.657471ZM13.1841 3.18544C13.1841 1.7912 12.0501 0.657471 10.6562 0.657471V1.15747C11.774 1.15747 12.6841 2.06739 12.6841 3.18544H13.1841ZM13.1841 4.70408V3.18544H12.6841V4.70408H13.1841ZM12.1748 5.71341C12.7319 5.71341 13.1841 5.26163 13.1841 4.70408H12.6841C12.6841 4.98536 12.4559 5.21341 12.1748 5.21341V5.71341ZM12.0523 5.71341H12.1748V5.21341H12.0523V5.71341ZM6.65395 3.18544C6.65395 2.9047 6.88253 2.67612 7.16327 2.67612V2.17612C6.60638 2.17612 6.15395 2.62855 6.15395 3.18544H6.65395ZM6.65395 3.94476V3.18544H6.15395V3.94476H6.65395ZM11.4155 3.69476H6.40395V4.19476H11.4155V3.69476ZM11.1655 3.18544V3.94476H11.6655V3.18544H11.1655ZM10.6562 2.67612C10.9367 2.67612 11.1655 2.90476 11.1655 3.18544H11.6655C11.6655 2.62849 11.2127 2.17612 10.6562 2.17612V2.67612ZM7.16327 2.67612H10.6562V2.17612H7.16327V2.67612ZM7.53547 7.63133V5.46341H7.03547V7.63133H7.53547ZM10.5337 7.38133H7.28547V7.88133H10.5337V7.38133ZM10.2837 5.46341V7.63133H10.7837V5.46341H10.2837ZM7.28547 5.71341H10.5337V5.21341H7.28547V5.71341ZM3.78729 32.8806C3.78729 33.4378 4.23943 33.8899 4.79662 33.8899V33.3899C4.51558 33.3899 4.28729 33.1616 4.28729 32.8806H3.78729ZM3.78729 20.6599V32.8806H4.28729V20.6599H3.78729ZM4.79662 19.6506C4.2395 19.6506 3.78729 20.1024 3.78729 20.6599H4.28729C4.28729 20.3787 4.51551 20.1506 4.79662 20.1506V19.6506ZM13.0225 19.6506H4.79662V20.1506H13.0225V19.6506ZM14.0318 20.6599C14.0318 20.1025 13.58 19.6506 13.0225 19.6506V20.1506C13.3038 20.1506 13.5318 20.3786 13.5318 20.6599H14.0318ZM14.0318 32.8806V20.6599H13.5318V32.8806H14.0318ZM13.0225 33.8899C13.5801 33.8899 14.0318 33.4377 14.0318 32.8806H13.5318C13.5318 33.1617 13.3038 33.3899 13.0225 33.3899V33.8899ZM4.79662 33.8899H13.0225V33.3899H4.79662V33.8899ZM5.55594 21.6693H12.2632V21.1693H5.55594V21.6693ZM5.80594 32.1213V21.4193H5.30594V32.1213H5.80594ZM12.2632 31.8713H5.55594V32.3713H12.2632V31.8713ZM12.0132 21.4193V32.1213H12.5132V21.4193H12.0132ZM6.88174 26.7701C6.88174 25.6523 7.79166 24.7421 8.90971 24.7421V24.2421C7.51547 24.2421 6.38174 25.3762 6.38174 26.7701H6.88174ZM8.90971 28.7981C7.79164 28.7981 6.88174 27.8882 6.88174 26.7701H6.38174C6.38174 28.1643 7.51549 29.2981 8.90971 29.2981V28.7981ZM10.9377 26.7701C10.9377 27.8882 10.0275 28.7981 8.90971 28.7981V29.2981C10.3036 29.2981 11.4377 28.1644 11.4377 26.7701H10.9377ZM8.90971 24.7421C10.0275 24.7421 10.9377 25.6523 10.9377 26.7701H11.4377C11.4377 25.3762 10.3036 24.2421 8.90971 24.2421V24.7421ZM7.90039 26.7701C7.90039 27.327 8.35282 27.7794 8.90971 27.7794V27.2794C8.62897 27.2794 8.40039 27.0509 8.40039 26.7701H7.90039ZM8.90971 25.7608C8.35276 25.7608 7.90039 26.2136 7.90039 26.7701H8.40039C8.40039 26.4896 8.62903 26.2608 8.90971 26.2608V25.7608ZM9.91903 26.7701C9.91903 26.2135 9.4663 25.7608 8.90971 25.7608V26.2608C9.19016 26.2608 9.41903 26.4897 9.41903 26.7701H9.91903ZM8.90971 27.7794C9.46623 27.7794 9.91903 27.3271 9.91903 26.7701H9.41903C9.41903 27.0508 9.19022 27.2794 8.90971 27.2794V27.7794ZM5.35929 34.9789C4.80181 34.9789 4.34996 35.4307 4.34996 35.9882H4.84996C4.84996 35.7068 5.07795 35.4789 5.35929 35.4789V34.9789ZM5.35958 34.9789H5.35929V35.4789H5.35958V34.9789ZM6.36891 35.9882C6.36891 35.4307 5.91706 34.9789 5.35958 34.9789V35.4789C5.64092 35.4789 5.86891 35.7068 5.86891 35.9882H6.36891ZM5.35958 36.9975C5.91713 36.9975 6.36891 36.5453 6.36891 35.9882H5.86891C5.86891 36.2693 5.64086 36.4975 5.35958 36.4975V36.9975ZM4.34996 35.9882C4.34996 36.5455 4.80253 36.9975 5.35958 36.9975V36.4975C5.07842 36.4975 4.84996 36.2691 4.84996 35.9882H4.34996ZM8.39657 35.4789H12.9525V34.9789H8.39657V35.4789ZM7.88725 35.9882C7.88725 35.7069 8.11547 35.4789 8.39657 35.4789V34.9789C7.83945 34.9789 7.38725 35.4306 7.38725 35.9882H7.88725ZM8.39657 36.4975C8.11553 36.4975 7.88725 36.2692 7.88725 35.9882H7.38725C7.38725 36.5454 7.83939 36.9975 8.39657 36.9975V36.4975ZM12.9525 36.4975H8.39657V36.9975H12.9525V36.4975ZM13.4618 35.9882C13.4618 36.2692 13.2335 36.4975 12.9525 36.4975V36.9975C13.5097 36.9975 13.9618 36.5454 13.9618 35.9882H13.4618ZM12.9525 35.4789C13.2336 35.4789 13.4618 35.7069 13.4618 35.9882H13.9618C13.9618 35.4306 13.5096 34.9789 12.9525 34.9789V35.4789ZM3.36518 14.7129C3.6231 14.7129 3.88178 14.6142 4.07882 14.4172L3.72527 14.0636C3.62569 14.1632 3.49581 14.2129 3.36518 14.2129V14.7129ZM2.65154 14.4172C2.84857 14.6142 3.10725 14.7129 3.36518 14.7129V14.2129C3.23454 14.2129 3.10466 14.1632 3.00509 14.0636L2.65154 14.4172ZM2.65163 12.9898C2.25722 13.3838 2.25734 14.023 2.65154 14.4172L3.00509 14.0636C2.80606 13.8646 2.80619 13.5422 3.005 13.3435L2.65163 12.9898ZM4.07912 12.9896C3.68475 12.5952 3.04565 12.5958 2.65154 12.9899L3.00509 13.3435C3.2042 13.1443 3.52671 13.1443 3.72556 13.3432L4.07912 12.9896ZM4.0795 14.4168C4.47346 14.0224 4.47291 13.3838 4.07921 12.9897L3.72547 13.3431C3.9244 13.5422 3.92445 13.8645 3.72577 14.0634L4.0795 14.4168ZM4.01385 14.464L4.01444 14.4637L3.79083 14.0165L3.79024 14.0168L4.01385 14.464Z" fill="#222222"/>
</svg>
